<mxfile host="app.diagrams.net" modified="2022-03-03T12:02:53.327Z" agent="5.0 (Macintosh)" etag="7rhcKSvqGPP_NLfeCjxF" version="16.6.5" type="github">
  <diagram name="Page-1" id="c9db0220-8083-56f3-ca83-edcdcd058819">
    <mxGraphModel dx="1090" dy="722" grid="1" gridSize="10" guides="1" tooltips="1" connect="1" arrows="1" fold="1" page="1" pageScale="1.5" pageWidth="826" pageHeight="1169" background="none" math="0" shadow="0">
      <root>
        <mxCell id="0" style=";html=1;" />
        <mxCell id="1" style=";html=1;" parent="0" />
        <mxCell id="3d76a8aef4d5c911-23" value="GraphQL" style="html=1;shadow=0;dashed=0;shape=mxgraph.bootstrap.rect;strokeColor=none;fillColor=none;fontColor=#999999;align=left;spacingLeft=5;whiteSpace=wrap;rounded=0;" parent="1" vertex="1">
          <mxGeometry x="40" y="133" width="200" height="20" as="geometry" />
        </mxCell>
        <mxCell id="3d76a8aef4d5c911-24" value="&lt;br&gt;{&lt;br&gt;  &lt;span style=&quot;white-space: pre&quot;&gt;	&lt;/span&gt;&quot;version&quot;: 1,&lt;br&gt;  &lt;span style=&quot;white-space: pre&quot;&gt;	&lt;/span&gt;&quot;pageInfo&quot;: {&lt;br&gt;    &lt;span style=&quot;white-space: pre&quot;&gt;	&lt;/span&gt;&lt;span style=&quot;white-space: pre&quot;&gt;	&lt;/span&gt;&quot;pageSize&quot;: 20,&lt;br&gt;    &lt;span style=&quot;white-space: pre&quot;&gt;	&lt;/span&gt;&lt;span style=&quot;white-space: pre&quot;&gt;	&lt;/span&gt;&quot;nextPageId&quot;: &quot;&quot;&lt;br&gt;  &lt;span style=&quot;white-space: pre&quot;&gt;	&lt;/span&gt;&lt;span style=&quot;white-space: pre&quot;&gt;&lt;/span&gt;},&lt;br&gt;  &lt;span style=&quot;white-space: pre&quot;&gt;	&lt;/span&gt;&quot;stringQuery&quot;: {&lt;br&gt;    &lt;span style=&quot;white-space: pre&quot;&gt;	&lt;/span&gt;&lt;span style=&quot;white-space: pre&quot;&gt;	&lt;/span&gt;&quot;$.eventId&quot;: &quot;123456&quot;&lt;br&gt;&lt;span style=&quot;white-space: pre&quot;&gt;	&lt;/span&gt;  },&lt;br&gt;  &lt;span style=&quot;white-space: pre&quot;&gt;	&lt;/span&gt;&quot;attributesToReturn&quot;: [&lt;br&gt;    &lt;span style=&quot;white-space: pre&quot;&gt;	&lt;/span&gt;&lt;span style=&quot;white-space: pre&quot;&gt;	&lt;/span&gt;&quot;$.feeDataMap.CEI.items[*].asin&quot;,&lt;br&gt;    &lt;span style=&quot;white-space: pre&quot;&gt;	&lt;/span&gt;&lt;span style=&quot;white-space: pre&quot;&gt;	&lt;/span&gt;&quot;$.feeDataMap.CEI.items[*].calculationDataMap.FnSku&quot;,&lt;br&gt;    &lt;span style=&quot;white-space: pre&quot;&gt;	&lt;/span&gt;&lt;span style=&quot;white-space: pre&quot;&gt;	&lt;/span&gt;&quot;$.eventType&quot;&lt;br&gt;  &lt;span style=&quot;white-space: pre&quot;&gt;	&lt;/span&gt;]&lt;br&gt;}" style="html=1;shadow=0;dashed=0;shape=mxgraph.bootstrap.rrect;rSize=5;fontSize=12;strokeColor=#dddddd;align=left;spacing=10;verticalAlign=top;whiteSpace=wrap;rounded=0;" parent="1" vertex="1">
          <mxGeometry x="40" y="153" width="800" height="240" as="geometry" />
        </mxCell>
        <mxCell id="3d76a8aef4d5c911-25" value="Copy to clipboard" style="html=1;shadow=0;dashed=0;shape=mxgraph.bootstrap.rect;strokeColor=none;fillColor=none;align=right;fontSize=10;whiteSpace=wrap;rounded=0;" parent="1" vertex="1">
          <mxGeometry x="690" y="133" width="120" height="20" as="geometry" />
        </mxCell>
        <mxCell id="3d76a8aef4d5c911-30" value="" style="shape=triangle;strokeColor=none;fillColor=#000000;direction=south;rounded=0;shadow=1;fontSize=12;fontColor=#000000;align=center;html=1;" parent="1" vertex="1">
          <mxGeometry x="400" y="445.5" width="10" height="5" as="geometry" />
        </mxCell>
        <mxCell id="3d76a8aef4d5c911-51" value="Query" style="html=1;shadow=0;dashed=0;shape=mxgraph.bootstrap.rrect;align=center;rSize=5;strokeColor=none;fillColor=#3D8BCD;fontColor=#ffffff;fontSize=16;whiteSpace=wrap;rounded=0;" parent="1" vertex="1">
          <mxGeometry x="40" y="410.5" width="151" height="40" as="geometry" />
        </mxCell>
        <mxCell id="3d76a8aef4d5c911-53" value="Clear" style="html=1;shadow=0;dashed=0;shape=mxgraph.bootstrap.rrect;align=center;rSize=5;strokeColor=none;fillColor=#DB524C;fontColor=#ffffff;fontSize=16;whiteSpace=wrap;rounded=0;" parent="1" vertex="1">
          <mxGeometry x="670" y="410.5" width="170" height="40" as="geometry" />
        </mxCell>
        <mxCell id="Nm5p5bTHlynpgv0Hk6lQ-1" value="" style="html=1;shadow=0;dashed=0;shape=mxgraph.bootstrap.rect;fillColor=#61628A;strokeColor=none;whiteSpace=wrap;rounded=0;fontSize=12;fontColor=#000000;align=center;" parent="1" vertex="1">
          <mxGeometry x="40" y="26" width="800" height="90" as="geometry" />
        </mxCell>
        <mxCell id="Nm5p5bTHlynpgv0Hk6lQ-2" value="&lt;font style=&quot;font-size: 17px;&quot;&gt;SPS Fee Data Analyzer&lt;/font&gt;" style="html=1;shadow=0;dashed=0;fillColor=none;strokeColor=none;shape=mxgraph.bootstrap.rect;fontColor=#FFB433;fontSize=17;whiteSpace=wrap;fontStyle=1" parent="Nm5p5bTHlynpgv0Hk6lQ-1" vertex="1">
          <mxGeometry x="90" y="-5.4" width="205.7" height="60" as="geometry" />
        </mxCell>
        <mxCell id="Nm5p5bTHlynpgv0Hk6lQ-10" value="Log Out" style="html=1;shadow=0;dashed=0;fillColor=none;strokeColor=none;shape=mxgraph.bootstrap.rect;fontColor=#999999;whiteSpace=wrap;" parent="Nm5p5bTHlynpgv0Hk6lQ-1" vertex="1">
          <mxGeometry x="730" width="70" height="60" as="geometry" />
        </mxCell>
        <mxCell id="3d76a8aef4d5c911-8" value="Simple APIs" style="html=1;shadow=0;dashed=0;fillColor=none;strokeColor=none;shape=mxgraph.bootstrap.rect;fontColor=#999999;whiteSpace=wrap;" parent="Nm5p5bTHlynpgv0Hk6lQ-1" vertex="1">
          <mxGeometry y="50" width="70" height="40" as="geometry" />
        </mxCell>
        <mxCell id="Nm5p5bTHlynpgv0Hk6lQ-22" value="" style="shape=image;imageAspect=0;aspect=fixed;verticalLabelPosition=bottom;verticalAlign=top;fontColor=#E3E300;fillColor=#003469;image=data:image/png,iVBORw0KGgoAAAANSUhEUgAAAR0AAABbCAYAAABOHFG+AAAAAXNSR0IArs4c6QAAAHhlWElmTU0AKgAAAAgABAEaAAUAAAABAAAAPgEbAAUAAAABAAAARgEoAAMAAAABAAIAAIdpAAQAAAABAAAATgAAAAAAAACWAAAAAQAAAJYAAAABAAOgAQADAAAAAQABAACgAgAEAAAAAQAAAR2gAwAEAAAAAQAAAFsAAAAAVHkihwAAAAlwSFlzAAAXEgAAFxIBZ5/SUgAAJatJREFUeAHtnQmcHEX1x3t2N3dCCCRAJBdCCBJBERQBBSKI3HdABEUFEVAQUIF/RIl/kL+KNxLDLacIAooIJCgQFJFbETkDJMQECBBCsjn2nP/317O9mZ2d7q7X0zO7m/Tbz2+7u+q9V1Wvql5XVdd0e15GmQUyC2QWqKEFcta08vl8PTL9wCCwBdgcjAYjwTAwAIiawbtgMXgVzAUvg1bQksvl8hxTI/JVF6MsH5Um8rKFytUfbAxUnqGgBSwFC8Aq0Iyedo4mKrHbWISHA6UlnQuB7NQGUrcNOstSUZlV7jFgYsdR5Vf+VMeqb9XZCvAWUF5Vj8+ClaAVeyjfqVFHXcbVZ2rpFSlqi2ojRXxOpx3lkG1VlvXApmAwGAhWg0agelf7Cure3LaQjaSOeo7s63FtukOH2qvKo/YR9A/lW/38v0DlUftVewmlyIwUS5GoEtkWfArsD7YGSWgWQjeDh8jcM0kUFMuQLxlhXyDnF+XIZJD7SHMuxy6EjvcQsAc4GuwFwuzyAnHXgltd845uVdQOQDabCuSoy5Eq7y7wWzAH/QvKMaUR1mGzyejaBRwMpoB6YCXV3y1gNvgneZaNKyLytgEKjgUTQBJnFlZ3qIskOYYXwTWUY1kkZ0wkZdDNV/b9GNgP7ASCmzGn3aiFkIfA3WAOeLrSPKDDJ/IiB7E32BCE9Q/ZTO3tHtKVA+xC6BhDwB7g82A3EGZjOZ4/ALXhR9Elx2onEuwHTgT3glaQFr2Eop+BsE7olFnkP23I0F3wavTSSVwfBP5h0CHWheCMTiUhJ/BsDa4EjcBCj8H85RC1FQWjd09wNXgdpEUq321AjrUiQsd5aWUqoZ6zKykAaR4CbgFLE6a/Crk/gqMqyUcgi57fGPJxfiAXHJE9AKg9WqgJZrWxcYEe5yNCOwJ1SBmiWvQCig9zzlQJI7IXGzL2NLybByo4lzNdYZAvZpUDvizQVXokbgp4vljAeC6bq+IaSnUnuUbPUHAJWAyqRUtQrPqIuqtHZh/ZO6qVOUe9ukubCd3DgTr4csd04tik5x4w1pyZIgHkdXN3pduLRD2EjgVJ+4fSfAW4DypgPgq8A2pB7STy2eICu54jN8OQQTkd3wgc9zXIRbH+sDSvME8G6oBp0GUoSdyJlTfkx4CH08iMo47fwacphpmQ63NOhzxvBuaBatAbKNXUJhEhO9eQKU2NfFKaBrkoVvkQrfl2UtnFOpi09nADWL+Ts7onmiNeQ7pam7FS2PwyTI9GKBr2/SmMwRj+TfRpXcQnzjV9+zMYUQip+P/xaDgGvdZy+gkjtyknys9H/IDa/NPI9aekncoorTZZTpYKZdQ6p9a2xifTECu1ERy3kk6SvhGrvBwDaWkNp8uopxyfY5h8iKabnb6m8yRQQKQWnW4Krmt8vI30JxrTDFscK6dGvPXg8nKRFYRNJ99aaBddCjbxz9L7931UdblbuKgmT1o8vBNMcuFPkUd2Pg58JUWdvU4V9pUjvxfoaVQ1SU++biS9KdVMBN1BX/o554NTTEsPUk4K9HVxOhRqPBHXBpE9cNSTnl9WMd0mdB8Cdk45Dd3tDsd+u3JMZQGwJH9yaJ2VVhIXdak1J+Wt1hSMyr6HTeyLibXObdf0grx3DS256ijXTILl2GtBmq7eQLpbVTGxFvSrb+yZchp6wnwoun1bdXE6RFwCgjt2yuk6q9uezH3UmdvGqIqTUxhiE4vlVkM9Glwcy5mc4XSLKDY8Fv59LDJV4JWdT6uC3mqqbIlTjm3Vib4JtovjTTleI+hEC92O+dCI6nCgY9q0Iwr9EXfnnBtDan+KhotW0pDsbTAHzAMaan4Y7ADUGZ3uHPAFtAEnB4F/BAEpHrdMUVepqo+VBqR8PYQ62p69D4/H6YVPjeZzwDrsV12q08n2/wLNYHOgO5+G26U3KYJiaW/y8y3yvSqWs8CgNHuSNF2KI/WTr8YxlYlvJ0xoBLKnpvqyqaWP6CHF97Dnt5BLm7ZCYbX6iG5A25D3hzqdDgHycCOAK6mBqnHKAN0WZVE+irgfgSOB5emLKkD7WwaidzXnGa2xwO6cxjodeHYCurNYaBHMmi5cWM7u1IfWZ9TQRwML6SbyQfCQo5Cm93LgSRycklD70W5qdWgrvUTZr4gSwg7S/6sonjJx6it/A+ejf3YQj64tOD8ZfB649j2VS0+Wr0fXM5ynSePSVFZGl9rkr32nQwE248I6yrkKmVMp+Ioyyj3C3yT8WHS/yPEcYHE82pugoeQ8EEdqBJXQKoSfA+8C3X3UENRR0iKNHOYCOVCNQDYHSUl3okjC3qrTjwPdWVxJdfQZ6uyxMAHitP/mYeJvAmovrqQyTwKxTgf9JJPTwwTlZwxQZ7WQRklyWGcBS/mVRitw2bZxDHzbSMBAF1OuU0r5CZtL2BmU9z6O14NhpTwh17L/Ecidh462EJ40g59E2X+BbgTqm9uCJDQZId/naB/HbkCLSK70KIya18YSfPXAukdkPjIfiFUOA3y/AlbSviCRNnPtDCaAjcFYsAOYCdIgbQPQJsEtgfZyaASn/Q/acSoK8lG4iv8/K84mqBgO/havqguHcydC6huguYt0/MW0uHynEU82BgM5rSR0jkseUPyyUfld8Mc6E3i+bdSrTX+6MUcSPJZ9OqVZeI0AObfxQO1qfaC+cgJIsgnyLeSGq9PmgHbmWkjDJGdC8fmgzZCAtpDv4pIAfEmcjrIyM0o/8ZeKKSGpU04DBa9ekhDh6hxXAys9UqKq2yUKR4Mmg+IZ3ZREBKBXC/1qjBb6cYTKVKLIjNrxSZZMFfHex7mWAyIJnoOAxbar4N8/UmlRJLyrgYWmFomXPUVZUqezGNnQqTRxXwXWmyYi+RHBvFlTDFdawpBOw2wLqbNoAc2VNBXr78qcgO8VynBilBzxJxC/LIonIu425C8AGrJ3I8JXEvgdsLRbZHSApn9xJDsvj2Mqir+26NzlVFNRLYRaaKCFOSGvphy/TCD7NjKqKy0HxJE6udMIv0PR4xwfjVNaFK8lCwsdb2E28u6KTV4LkyFOtn4lLD4ifGAdwpo33wbOBLeDB4Dm9s+A+UCVUbxucxHXVlLmlI4ryeGUHSW4Kojh+3ZMfBCdpBFrDecrgYKIoxr7XRHx5aKCm0S5uCBM9XUUuBH8BfwDPAVeAmpEWrsKnKHCnwbORHtRW7DcpKS7P3c4l7w756OYEd1qL78DSdK4nDLdU6yv3DlpbES4pvy5cvEhYc+g+42QuHLBN5cLjAjbi3xpzSxt+jn51s0ljn4Ux1Amfn2/Y5OA7ugXdkBTLhVkgxKM5FqO4zpgpXeMAqrYJA3IJRk5hb+6MMJzO7CuR9yPPd+K0w9PI3Z+No6vJD7WcaNXIx11Ir8jkYZGjdqUpacjOgb1Opzze0EjsJJVRnVp6azW/Kjxb2cVgv8B8D+OcnI4sWsoRbpWc/5E0bXLqUZGVjoQgSR9MiwdtTFX53crvDPCFIWEDyk7muhwQnJE80IErcFNCMR2GKvSDn6r3qeQW+mY1n8c+YrZLKOXJcWCDudtDjxdWKhL2X5RB7rEVXChDmUhax0568apHg7zcc4Caxg1BdUTO9e8vQ9+3XhdSTb6tytzB5+evumJ1hYGubSdjvrHqy7pYzv9GFUj3yEu/B08A6o1mjDkoeasL5Oia6fRqMh6V3/OUCI5BAsF0yKLTDV4e0W7ocGPo3AaibqsdZXa4XN0moWlgeWuSUfrOBPLxUWEyYE4dd4iHRqlvlJ07XL6KRcmA88L8FpmJpq2W6ih7EjHokG8VIrm1KqYYmjxcAwYC7Q5rB70BtLUx7Xz6i6oEd9QQ8bnGXhd8xGoNI90AkHXI3WpNlFcjzpX2MZgPNgEWO7EsKc/terI5ynoTjKtugq5WcqYI6n+JzjyBmy6YS0MLhyPSZzOethiQxyo1gjTID1ksdxoLWtWyl8ukdOhkGqAmwI1QDkWNUI5F50HSKQbeStZ1wqKF1Jd0lrlwlTE82bRedypGpkcm2sZxJ8qUZfqUKqz94DR4L1gAgjqUcf1QG+jPcjQNxJkai4yP6BjWepV04dxxrT07mhrfYnf6qjUfrTedK8xf2HsuilbyHWpolOns2OgcWo+ewDYGUwCqgQ5mp4easvoFtKUxipj0W9pzK7OxpK+Ey/1uReMnwDbgvFA9WkZ0cHeM0TetSh+ecLUp+MMnjfKatQ+yihj7ozoV7vUTdFCakO66afhdDQ6s6bfasmseGOdDhWsu98FQI10fZBk/oxY1cjacWUki9OxOlU5NVdS3q35d9Vdlo/6PJ2IE4BGqXqCVdP0SS8N+i1KxiRQpJeuX59ATk8ANzDKaYHVSmqXms5bSbOONEh9Y3UaiqJ0hDodGucgBKcDDWGtHQ+RXksWh6NCWNeiLPprZlfqcx/KchlIq4HKNjUnynEaiWpqZaVFOJxjrUId/FrXkuOxkHkEQP4oXl5P1aykgUEa1I4Sc76tCZd1OhRcC78zwY5WhT3Ab+nkSbJndQyWkYOFN0netcivO/TZ4JuJFPQiIcqiqeBZwFon6kxaGkhK1vSUTtJF/ySd3vLIOs4GslVVqZvToWL3J8XLwcZVTTlTXnULUJfjSESbt/aremJVToCyqGN9F2haaKVzEXjSKlTEn8TpFImbTpM4Hc1K+gx1cTpU7KHk/AqgtZuktBhBbYrSKvzrQMNFPf04A1inKohkVGQB51EddamFzxvALkXy1lPdrZ8A88AisLQDmnLXepr2WdI8GFhpDgJ6tYSz7cokkEQ2qaNKMtJImlaZopqDzKP1TqdDI9XQ9acgicPRHoGfgFuBHI28taDPtOqVGRM5Pw30RaeTpMFR1J4j7N2f1FWXSR3OdcheCZ4C2uTm1yXHdupTX9OQA6iZ0yE9jdguAlZ6B4FzyLOOlVASR6B1oCRk7sQkUvXF3yQFCZPxnU5HI/0WTKpcC+mxoN4ceEGMUJJKi1GZRUdY4CDijoqILxcl5zoLHEd9alQTRbV2xHeQmc4bZFTGSuJmUpa/lYQludSIz0pJpzxJnFWSx/PW8qTGH1Tk7mg80Kj1Nfi/SKXe7SCXxHs7qM1YSi3ADWQ4YV8HliG3nMhPqUvJuZBFt4u+UB7K8wMitwllCI94kPJMC482xWgbhKaWllmAeXGXsqqfmOWQeQP0GarrGOUcQ461AcpCX3N0ONKZOR2LZSvj1RNH61PHmw0OR7mrSX3SNvclrVOVoJG0rmgd6UUlIaejJQQLJRmxSH+SDZqvWjLW07y6Yw0D1gq6i0Z6syHzSby3QX3GWmQBbf6zUAvMX7YIwJu0Qzkng8PRmtG5wHozVBon0z4X6CQlWoUejewtpNf0bmgRgFf90SqjUepcYzo9yq5C7gqCaZZrZjTktZD2itTk7mjJ1NrGSyOXM9jbWC7t0tXUwYlIQ/VobS9OugMm0pD+k8FHgjDD8TJ4/2Tgd2FthGm+C2MRj8pgfbyv/ji2SIfr6ROujFXgM/drFXI3a0ZopHOMMtrzY86cMY2MvfBbKqsd7jQK6AaSZKRjqX85myTrMS8hNwPo3b0D5ISB2nhFRHvXTxpeMSoZAP8WRhnldbxR5h3yZ536GZNIl13e+P1GlfOM/GL/ILA0OvEqbxnZLLC9jd3nftYoszn81umyOqC2S+jReyThJEbAcH0kU3iknpJ+CSg9TYk0QnkTndrGoY75FnidTrqQo5WeQ0BrO9LtQpoWbunCWMQjp6O+YqG0R3WWtBPxqmNbh3Py+lb6KALWO47uqBnZLLCZjd3nXmmU2QF+OQYLiX8wUKeNo8thmBDHFBI/kXChHMnh6SnPApzQPI6PgftwQK5Tk2fgl/NyHYn0g3drYKGNYB5tEYD3JiN/j7PLEaxnzIUeyToTFay7r+6OVtInSFVxGblbwOoMpFkPEpyI+tDd++NAmw8tNAHm2JsI+k+A70CLYgOvbrBanNYN8NPgAnAnaT4EjuY8knBOT8KwMJKpe+QkdG/SPTg0ZP/QmPIR2rg5u3xU7w2V08kbszcGQ1qcwaHoV2VbaR8EdHfMyN0CSTZhfshdvf/unb0N/AGr7vgTgotyx442JadTq2m1HKfWGuWEriN9fUQvrtP/Gd424ErbwPh+V2b4vmbgFeu1OEM5nj5FcjrLE+T4cBcZKnE7+D7vwluGR5W1c5nwLCjcAsvCo0JjjgiNKYqgLgdxqU5h2SBXpME7Hh1RNyutZcgJ9BRpaqovr14TkQHFrY6IL40aSoC+kCkHF0nwHALDxEim7pFXdQ/q/SFyOosSZPM7cYYkXg3ox+A9CfQHIjPQo4rLqGCBuFHpqwkMtR823sVB7nR4PuPAF8aiKc1uYZGEjwHWqX6EusRRR2OPw8pJM6rQ07H7ysVFhB1H3F4R8Xr9yDjifxbFUyZOo66ny4TXOihnTVBORwtkVtoKgSsxlub43YjwjxD4BzClW6QtYALsl9pEUueO6+ipJ1iBQtdF0dIk9M11LRB3I8KHgl8RcX63SHuA0hkVIqa2VKupVUgW/GDVd9SU84wo4TJx6mPqK2UdGeGTib8RyPG4UjOM1+EE33UV6E18MshDCTOku94jGE3fQd8KbAr2BL8h/G6wY0K9pWKHofOU0sDsuqwFrHfhQMl7ObkLO18EPgr0PfQPgG8T/i9wAjDf0ZApJT2Z+V1pYMe19KeRRoh6U3Co86Ojv4gmOWELydHq2/WzwLHgE+DT4FrCHwQ7WZTB+wjoc0+tgjLKuLODC+NRDUQLZdYKMCbjPynReoB+H/S6VXhd4sc+K7DTPyizFketNBKBr3bAKmvh/zB51EfubrAI1Zg3bnR7LvnRumbYqK1cdrW3SdOsyKlWOcGSsEauz8N+q0rC+8ylRjpafLyzl+e4P/nL1nbcKuliN7Ye41Jd9oa1m0oM8BbCXwdxzqmSNMJkZ+Bwkg4UwnTWNLyOAmg1/jJgeRSYNJMaEspTW+gdmP+XfM61CK3DvHdQ9ueqWP6goz1GGhrmW2kGAtdZhRz4defXk1jdRNWmq0a0RdlAbfnyqiVSXrF+J3dW+ai+ExrMXeU5/wgOrmLWp6H7F+C7QHcJF3oVpkMx9OMuzBkPiyL8eJPpywXY4ipQXwWbaFr9ADgGjAX3g6hH4UR30kmcXUkemztD7Ce6CT0KtGj+PFAbWQFagPYpySGo3Grbg8EYMAlsCzTt3AhUTJShCTurHU8An6xYYbyCW2Cx7uOJ19oDHL7TwYArMeA3SF9Pnd5ThXyciM4rSEevuvwp51PAh2LS0Z30AGSydZwYQ5WJvoGwPcCxZeIqDdJI6ovUi37TtJBzObhzY5RqFHI0uB25JCNqTWc0Gtfo4gUgHT7QJycTSuRRTlLLCIEj2pTzw8FxYHOQmEh7Ofr3RsGfgdp0teh2FH+J9JZWK4EK9Mq+JlJl+ESBXuJkP/BmISSV/3IYWjS8BLRKI0c11DNAVDr3EL83vJnDwRBWwm7qkOpUs0CSXcrlkpTjuBocjn6/7jhK94VA6YTRa0RMhfe2jnyF8Wn0E+RVjmQZ0FrjrsiNAtPAP8FK0AT02d5Ih4Os2lse6F3dzUCyL4L/A1sQ/X7wa6DRk2wWkMrqROjRe6M/AbOmjUH+nWQdmJSPq8AhpKE8rp2E5x4P9PhUw8ektATB28DWYVYi7kigqUAp6dHi0DC50nB4f1aqIOb67FIdYdfo6Q+0Pd5CwZQ1TG1nOEq/YFEM7wOdwo4nyPwQvGZMp5i9nYvHwLFhSRKnR+x/B6X0FAG7hMkVh8O3CbgVPAMuA5OL46t5TlobgwvAE2AOmJgkPeSOAY+DSkk213aUzyTJR7EMOuYaMtMI79Ri+bhz+G8x6BfrzmV1EqF3kRwFfg+agSvNh1G7iPcGscMueA4AC0FA0zjRMNiZ4Ncj2DcCBTHHV4l36gTKALx14FzgStfCGFvuoHDwbg1cG+kyeI8MZC1H5HYGcs4qvyuthvF28CUQuw4Cj36TJ/6A9JMC0/QF/lFA6y89QqQ9FmxcSeLIjwMngftBEpqFkGy+YSX5CGTRcyZw7cPK89hA1uUI/1SgtuJCT8I0MrKDwDCchLUX4cNAi3Bbgg2A7uYa+mlH5AKgBb0HgYbSixkKNnF0ItLQHU3DUy0WP4xs8TDXVcd4GIfEMGso3gj0eVnnNMhfsBgZN4LR0Fq6NS1wInTL/qOB7BxZF8TLpvMseYe/k0hrABeqS93FPw60x2oTILtJ9wqg6exL4GHwPHib9JzXEUhjBDL7Atl3NrJLOK6ThC1GUvCxYE8wBXwIlHNoiwh/EswCWhvS+35Sm0p11Ps49PYDUaT+sYS034hiKo1Dv/qF+p/aVxRJv9rT4riG3kUJCXTjR4mUZdTHLFCuLlWErD7Tr8giW6v/yMkPA8uxtRai/T61Ltm9mxNJ3+SZxswC6VggP53d6SP9DjuUsfYQnkltwdLtZowRN+VB+fqkMpjzes710EIjzre4XgDPs/C+znE5rz1fmjvC/4BgOpnKtJgtkDkds8kygVpbID+DPTb1PGnKedvjULYj/W0YzI/0H4RrnB08Myoec6tlB9Az2hW+I/onZw8QfgcLAXNy0zslCc6oVhbInE6tLJ2lY7IA/iPHQ+ijcCzaU7MtV5sxzqnzV4vkZIodjItmtXQ5H6EFF5RjK8cJ3u0uohlPuhaIWxxNN7UE2vKXep/nfnQojezS3EncoTJa6y3AyOZAnMP3cAxbgIF+geVktJMnKUley9tCP6Zmzf7GyczpJLVnBXK9fqSD08nT8Ar7SZu9+5uaveMHnOK9nMuZ73UVmCkTrYUF8j/hyegQNsP1w+m0VDFFbcpo857Kfdn7QBVTyVSHWECDzd5OM/0Mammwwdt9wBC+Znip9+P8TG+iPwTv7bnP8udkAW4uW+JwnvAdjkYjaplyDoLG4zoWVm8Kj/fz/kKxHi0L2rqx0o8PZOJup3lPr1/NqAcs0OunV48/5p263fbeKtrgqUyz9GRCw+PTuRMewZt8rubyN0y7nu4B22VJpmmBNm8yjmYg0x7tFdJTp7c5vk19B07lXeLf5XoFWE3cao6F8VAet1TPk6t2Rkpt/HYwz6dfcvwIs57lZjmw8tRYPjgLrbYF4u4H1U7fSf99072G3TfxvkJD+gkChdFZMEZr8+YRdufKVd75Q043f2/aKf2MqfoW4HXoQ9hu+l4cR56/lT7aOA7wVjENMk22WBMawY1pErpupLWM59iVdKtt8e7Onejt0zUiu6qFBfqE0wkMwZTqUBrRLTTIUlKzWkr4lTTT7+TO8HdLl/Jk1+uYBXiz82G4st91aw39MUSz90uc2SnrmEl6RXGD8UKvyExcJrgz3Ypj0V6Nxf7i8hoBlWMD7m7fYJC9jMZ27rJLvJH5SwjJaN21QM57quyHjNVa8t5/1l3D9GzJ+5TTkam4Oz2xsoUNYvky73bWYnMd8/uB3vRhee8VHNN5OKBdcD76/VRG66IFtKZTbjyf918Cti5apMfLXK46ejxTLhnAkQyHbxqLhWf6c/bSKZdKpnFOM9Muvd0uz0awpd6tubP9Jx0EZdRXLZC/jLcBtnmfIv8jqNe7wx4kwLcta0L/6jK9UrvI8y6neu/DueO9+X3VBn05333W6cjo+fsY1TzvLwbeiIMZXHYorRJqPMeiZD7vLeDndXc2NXk/GXyq91/pyKjvWIDH6pPb270z63L+r+T1i+3+OJB3V+e9HQad5D9Q6FIY1gAPp1Xc3MXp6JF6G59IamNH8sn+k7EuMtlF9S3Q56ZXxSbJTfFaWef5Iw1vM0Y0f/f3cxQz6FwjoMJj08FsKJxEgU8fNBDnM9Ob1TIj8ouTpZqy6x6yAHV1ACPbv5L80zicz3HcDGjK3MD/DQfW+7/H4rIb7dhR92si1OLbeXXHyf4IeE14dlYzC/T6fToulmB4vZhGuTuO50JGNV8Ew7o9Ji1WJEfU4O3VAJB7Fcc0s4mnYgNW8C6g07PGWGyqnjjPX8+0aRm/HK/j6VOel5EP5FoPzUsffWsUWwgLewfMJ7s5nRZ+aV7vPYZo6YS8J4q6TqapalurCCcyleb0dQbeO/rTrbimpTufHqGyzzXfzvoAXydtbfeeaGjy/p05oNo1DV7Xvz5fNtsGJ7EjC796EdgU/1dXxW9OLs5OYcTShs+5oq6/97XcF7p+diY/nW9rjWP9rniHj1p7njWeVt6//RV/E2Kxxuy8RhZY65yO7Jb/hTemvb/3RYbi/8OIZmDZtZ5SA8sSha32HvyLaZzP0fgfb817dzVs4N3LO1jC97aW6squnSyAY2jgXXp7YOe9EdiB4yTW5kb5oxeNYMJuGBqft3p6K+EZc5u8Gyee6r/5kMs1xAbBzzD1ur4kRlsPL2VKftIazuys1hZYK52OjEiDrqNBqyFfSUOe7OR4AusHVtHe2Ly3nMXnZbwf8UE03nz/Iu8PU6abtAVas2OHBVijOYjTo4Be0j2cOhqKbet8JxPmaDpk/dFPk3ffqtXe56IeBpDGX3Bpnyi5VazCoe3OdPyRQF12rL0Fgu5V+5RrmGLbTO8cRuPn0qz1261kZZaUULgD38vZLauavdsHLWFUtDVNe6rHp0j8blPDkvXepHhSmOO5UR3Ph+pWtXsb8evK/bH+YeT4k74d5VziHEz34un3UmezV+vi7lFrQphi6w2CjV3qulB3DzLK+dgazuysJyyQrAP2RE4rTJOGOA4VPwefpCsM6ViATKZV0zAN8XVcyV6PPC/Uznn3trR5z/drY9jf6r2zLq4H5a/whq1u9EbU9fPW79/gu+LdsfXurJlN8h2NNm9aJ6mysbY78Ma/5gbvtIHH+S+MJzCcqOvjib0UrGnfWgPKe7vw4q6/h0tmMbWwwJpKqUVqvSANht2Hko3jcBj70iG0NlAZSUfghPRyhZz/HfHnaODPcvUSaczHwc1n2XI+r8es5DVUleWzCtK+I9cPKvPeBMqoF25N4nwrkprMiyMafMcuJ2N1NMqrbCpqZWMnH5xjhHKNLl2IfP0Zvj06efWgoNn7PSOkQzrDspMes8A653Rk6fzl/E6r2duJhj2NNYKdfVegaVOlJGsWo9XvblrwXEJnfAcsJP5Z+uDz9TnvRcKfoyPoXTC9mm6a6tVPnYJTqffeRxneR2a3BuMpywYcC2hg728wZQqOSUol+2kneZO3gEdT52KnP2lLhKsqbip6rcVs+Df1ZaRPv1pv9T7AE6u5rnoyvupZYK3Yp2M1D9vf5Qj+9PqF3v0j897+NOxf0KE2SnRHLk68e2fT/Vrfmhrlj6oUz32fwGCi0c5deQUjgrnEz6VzFI5N3tzG5d78YdMiP73sK0vr33/40sLWY5iCtvN9b0Hf+a7DwbQzavF4nK2vLARjOp3n+CuUp5CFSkeM0qIU2rBNk3fOW+96M0ae6TWa18ly3l5o0fe8ClT4Kcx0LPlyEJQde9YCug9khAVYbP4aj9jP4nQk3alflw5VbQsVj46Kz5VuE385bxH5WcTVW/wM4N26ejYwcuRaL7bSpK7FR54xW45O2+7/NRCnm0o/jlrD0veWhjKgG0459fVIlXMUekdzHM04pbCwGzjO4JjGCBDVoVQYiWgCtpy8XD33P95ZEy+izAmIrRLrUY5rcV4H+jeQgu45/AziyNxpXtgGwgQpZSKVWEDVklGHBehnOe8S/x0rRxL0QbrsYL/xFt/Ra22tYidUfK58BLUXHMPyFuS/+KjzUoTJpx2u/GpUU5h+Pk0+ZuMuf5Gr8Pdw/MBze5zrPdhlhJ/ldqZldd4RLB7PSbsImb7kFohrrsk192FJf3fsIPZ45Pwfkx7Mus/I1NZ9+rBdKs66WlthuqORzZ04mz/g1Gez1rKgUt35m3Bjb7MTfZD3A7+upLDd+zQL0L+tVHcmn64FMqcTYU++TjCIrWvj2lu9feryvCBsEIuTmsgkeRoTkc5aH6UnfJq+rWTvjL5mlfdu4DgvzUV0v66G8NKuBha8RW1MqU7wbvLPs3+9ygKZ03GoDm1004Imi75TYD8dHECnKUxPHOTXWZbARu3eo9jgR6wk/Z5NlC3mxWEHA+Z/xv7zUWxMaMTd5Hk0/mXvjmqk45CVjCXGApnTiTFQueilvPh7eJ13Io7naOL1XpfhrB0UFp+DdZNygmtzmFqS0O6PA7XIrS863IYDuIwRzUvVLnq+8Dsu/bTiSR6xZ18HqbbBK9CfOZ0KjCdRRj8f4rAn2AloD8sk/1frmoLpyc/a6oTUcoKNkc1+SeVYXqDIj9a1sE7zVe8hrjPKLNDNApnT6WaSZAH+WwxfxOG08dG4ep58seUeTR9jHajw7SU5IaEvU7BTR4vBjf6j/Icp5wNtvG+4jX1G/Vd4c7MvcfTlCq5N3jOnUwU7+0P90d4QNtAMHpz332q3F1ON3XxnpJ0zGgHJAQWPrKuQh4pVqmUIcjQa0SjPLd4/Oc5urfPubmj3XuCp3gp+4NGYm+5vdoQho8wC8RbInE68jVLj8J3RKO8j7XXeHvTjXenMGhFpt69I/9W9a18n2ltcmAYGE0Jda13mEXIzh+Mc1mUe5phRZoGKLVD7Bl5xltcuBfnvswg9zNsGR7QNO4W1JrQZHV3b+Ad1YCBH/WRRk5o1CNxTVA3KhQiFn13ohwotQLt9Bf34VJ/n1Ttm/stRazLPM2Z5ekne+/eGp/rfCicoo8wC6Vogqsmmm1KmzWQBFqgH4xY2Zt/JKF6fun6D3vvsgRzIs90/x+RG3/DOATmgctSOk9G3v+v833etgHdZa857pyHPb8/awQDvzdxx/Pwgo8wCmQUyC2QWyCyQWSCzQGaBzAKZBTILZBbILJBZoK9Z4P8Bhkxk6+EvMz8AAAAASUVORK5CYII=;" parent="Nm5p5bTHlynpgv0Hk6lQ-1" vertex="1">
          <mxGeometry x="12.656521739130435" y="17.65" width="77.34260869565217" height="24.695652173913043" as="geometry" />
        </mxCell>
        <mxCell id="Nm5p5bTHlynpgv0Hk6lQ-23" value="GrapgQL API " style="html=1;shadow=0;dashed=0;fillColor=none;strokeColor=none;shape=mxgraph.bootstrap.rect;fontColor=#FFFFFF;whiteSpace=wrap;" parent="Nm5p5bTHlynpgv0Hk6lQ-1" vertex="1">
          <mxGeometry x="90" y="50" width="100" height="40" as="geometry" />
        </mxCell>
        <mxCell id="Nm5p5bTHlynpgv0Hk6lQ-24" value="GrapgQL Producer " style="html=1;shadow=0;dashed=0;fillColor=none;strokeColor=none;shape=mxgraph.bootstrap.rect;fontColor=#A3A3A3;whiteSpace=wrap;" parent="Nm5p5bTHlynpgv0Hk6lQ-1" vertex="1">
          <mxGeometry x="190" y="50" width="140.01" height="40" as="geometry" />
        </mxCell>
        <mxCell id="TeP9UkpX_FEp41PGhEr5-11" value="" style="shape=image;html=1;verticalAlign=top;verticalLabelPosition=bottom;labelBackgroundColor=#ffffff;imageAspect=0;aspect=fixed;image=https://cdn1.iconfinder.com/data/icons/material-core/22/content-paste-128.png" parent="1" vertex="1">
          <mxGeometry x="810" y="130" width="20" height="20" as="geometry" />
        </mxCell>
        <mxCell id="1jztqL3c_VuyJ9iQYRiP-8" value="" style="group" parent="1" vertex="1" connectable="0">
          <mxGeometry x="40" y="530" width="800" height="80" as="geometry" />
        </mxCell>
        <mxCell id="1jztqL3c_VuyJ9iQYRiP-1" value="A" style="verticalLabelPosition=bottom;verticalAlign=top;html=1;shape=mxgraph.basic.rect;fillColor2=none;strokeWidth=1;size=20;indent=5;fontColor=#FFFFFF;" parent="1jztqL3c_VuyJ9iQYRiP-8" vertex="1">
          <mxGeometry width="800" height="80" as="geometry" />
        </mxCell>
        <mxCell id="1jztqL3c_VuyJ9iQYRiP-4" value="ASIN: " style="text;html=1;strokeColor=none;fillColor=none;align=center;verticalAlign=middle;whiteSpace=wrap;rounded=0;fontColor=#1A1A1A;" parent="1jztqL3c_VuyJ9iQYRiP-8" vertex="1">
          <mxGeometry y="10" width="60" height="30" as="geometry" />
        </mxCell>
        <mxCell id="1jztqL3c_VuyJ9iQYRiP-5" value="FnSKU: " style="text;html=1;strokeColor=none;fillColor=none;align=center;verticalAlign=middle;whiteSpace=wrap;rounded=0;fontColor=#1A1A1A;" parent="1jztqL3c_VuyJ9iQYRiP-8" vertex="1">
          <mxGeometry x="6" y="30" width="60" height="30" as="geometry" />
        </mxCell>
        <mxCell id="1jztqL3c_VuyJ9iQYRiP-6" value="EventType: " style="text;html=1;strokeColor=none;fillColor=none;align=center;verticalAlign=middle;whiteSpace=wrap;rounded=0;fontColor=#1A1A1A;" parent="1jztqL3c_VuyJ9iQYRiP-8" vertex="1">
          <mxGeometry x="15" y="50" width="60" height="30" as="geometry" />
        </mxCell>
        <mxCell id="1jztqL3c_VuyJ9iQYRiP-9" value="A" style="verticalLabelPosition=bottom;verticalAlign=top;html=1;shape=mxgraph.basic.rect;fillColor2=none;strokeWidth=1;size=20;indent=5;fontColor=#FFFFFF;" parent="1" vertex="1">
          <mxGeometry x="40" y="620" width="800" height="80" as="geometry" />
        </mxCell>
        <mxCell id="1jztqL3c_VuyJ9iQYRiP-10" value="ASIN: " style="text;html=1;strokeColor=none;fillColor=none;align=center;verticalAlign=middle;whiteSpace=wrap;rounded=0;fontColor=#1A1A1A;" parent="1" vertex="1">
          <mxGeometry x="40" y="620" width="60" height="30" as="geometry" />
        </mxCell>
        <mxCell id="1jztqL3c_VuyJ9iQYRiP-11" value="FnSKU: " style="text;html=1;strokeColor=none;fillColor=none;align=center;verticalAlign=middle;whiteSpace=wrap;rounded=0;fontColor=#1A1A1A;" parent="1" vertex="1">
          <mxGeometry x="46" y="640" width="60" height="30" as="geometry" />
        </mxCell>
        <mxCell id="1jztqL3c_VuyJ9iQYRiP-12" value="EventType: " style="text;html=1;strokeColor=none;fillColor=none;align=center;verticalAlign=middle;whiteSpace=wrap;rounded=0;fontColor=#1A1A1A;" parent="1" vertex="1">
          <mxGeometry x="55" y="660" width="60" height="30" as="geometry" />
        </mxCell>
      </root>
    </mxGraphModel>
  </diagram>
</mxfile>
